<?xml version="1.0" encoding="UTF-8" standalone="no"?>
<!DOCTYPE svg PUBLIC "-//W3C//DTD SVG 1.1//EN" "http://www.w3.org/Graphics/SVG/1.1/DTD/svg11.dtd">
<svg width="100%" height="100%" viewBox="0 0 108 100" version="1.1" xmlns="http://www.w3.org/2000/svg" xmlns:xlink="http://www.w3.org/1999/xlink" xml:space="preserve" xmlns:serif="http://www.serif.com/" style="fill-rule:evenodd;clip-rule:evenodd;stroke-linejoin:round;stroke-miterlimit:2;">
    <g transform="matrix(1,0,0,1,-8862,-253)">
        <g transform="matrix(1,0,0,0.883586,322,200)">
            <g transform="matrix(0.000814502,1.14556,-0.980926,0.000893331,8885.21,-174.613)">
                <path d="M303.079,326.166C302.395,327.27 301.671,328.347 300.912,329.395C291.236,342.746 275.705,351.407 258.209,351.407C228.905,351.407 205.114,327.109 205.114,297.181C205.114,267.252 228.905,242.954 258.209,242.954C276.783,242.954 293.142,252.716 302.632,267.486C299.681,264.304 296.229,261.622 292.274,259.438C285.571,255.737 278.05,253.886 269.71,253.886C261.371,253.886 253.849,255.737 247.147,259.438C240.444,263.14 235.183,268.254 231.364,274.782C227.545,281.309 225.635,288.672 225.635,296.871C225.635,305.07 227.545,312.433 231.364,318.96C235.183,325.488 240.444,330.602 247.147,334.304C253.849,338.005 261.371,339.856 269.71,339.856C278.05,339.856 285.571,338.005 292.274,334.304C295.423,332.639 298.019,331.368 300.599,328.887C301.435,328.083 302.267,327.16 303.079,326.166ZM269.71,326.244C264.255,326.244 259.344,324.99 254.98,322.483C250.615,319.975 247.186,316.473 244.692,311.975C242.197,307.478 240.95,302.443 240.95,296.871C240.95,291.299 242.197,286.264 244.692,281.767C247.186,277.269 250.615,273.767 254.98,271.259C259.344,268.752 264.255,267.498 269.71,267.498C275.166,267.498 280.076,268.752 284.441,271.259C288.806,273.767 292.235,277.269 294.729,281.767C297.223,286.264 298.47,291.299 298.47,296.871C298.47,302.443 297.223,307.478 294.729,311.975C292.235,316.473 288.806,319.975 284.441,322.483C280.076,324.99 275.166,326.244 269.71,326.244Z" style="fill:white;"/>
            </g>
        </g>
    </g>
</svg>
